# xmcd CD database file
#
# Track frame offsets:
#	150
#	16220
#	43127
#	69456
#	94110
#	118648
#	135404
#	160664
#	201525
#	239146
#	279077
#	297682
#	308514
#
# Disc length: 4286 seconds
#
# Revision: 0
# Processed by: cddbd v1.5.2PL0 Copyright (c) Steve Scherf et al.
# Submitted via: CDex 1.51
#
DISCID=bb10bc0d
DTITLE=Various Artist - BazzDay 2
DYEAR=2007
DGENRE=Jazz
TTITLE0=Viktoria Korotkova and Miss is  Big-Magic Woman
TTITLE1=Alexey Lyubchik and Alexey Samarin Band-Tribute to Stevie
TTITLE2=Anton Gorbunov-Twist Nostalgia
TTITLE3=Elbrus Cherkezov-My Dreams
TTITLE4=Anton Davidyanc-104X
TTITLE5=Alexey Belyaev-Parashyut
TTITLE6=Dmitriy Maximov and Ceytnot-Tochka Kipeniya
TTITLE7=Anton Gorbunov and Jazzario-Dozhd v ladonyakh
TTITLE8=Lorenco Feliciati-Groove first
TTITLE9=Alexey Zavolokin and Njazz-Modal eleven
TTITLE10=Dmitriy Chestnikh and Dr.Nick-Paris
TTITLE11=Dmitriy Rybalov and Magic Pump-Toska
TTITLE12=Sergey Belyaev and Second Hand Band-Once upon a time
EXTD=YEAR: 2007
EXTT0=
EXTT1=
EXTT2=
EXTT3=
EXTT4=
EXTT5=
EXTT6=
EXTT7=
EXTT8=
EXTT9=
EXTT10=
EXTT11=
EXTT12=
PLAYORDER=
